<svg width="1920" height="1080" viewBox="0 0 1920 1080" fill="none" xmlns="http://www.w3.org/2000/svg">
<g clip-path="url(#clip0_7_2618)">
<path d="M1951.1 920.811C1913.97 881.658 1833.02 836.481 1824.58 758.929C1816.71 686.591 1811.44 430.834 1810.77 396.761C1810.73 394.62 1808.98 393 1806.84 393H1712.8L1689.17 432.118V853.046L1648.67 955.446L1851.18 1062.36L2078.99 1039.78C2078.99 1039.78 1988.23 959.964 1951.1 920.811Z" fill="#2F030A"/>
<path fill-rule="evenodd" clip-rule="evenodd" d="M1602.62 892.107L1666.62 871.193L1695.19 858.864C1712.3 789.725 1712.3 708.115 1712.3 708.115V393L1673.51 438.901C1672.91 439.611 1672.58 440.369 1672.58 441.298V699.08C1672.58 746.999 1662.41 836.785 1602.62 892.107ZM1558 936.906L1565.19 931.428L1569.36 923.957C1565.24 928.407 1561.47 932.732 1558 936.906Z" fill="url(#paint0_linear_7_2618)"/>
<mask id="mask0_7_2618" style="mask-type:alpha" maskUnits="userSpaceOnUse" x="957" y="409" width="801" height="544">
<path d="M959 929.637L1757.01 425.484V432.377L959 936V929.637Z" fill="#FBF9E3"/>
<path d="M959 945.637L1757.01 409.484V416.377L959 952V945.637Z" fill="#FBF9E3"/>
<path d="M959 927.573L1755.95 442.449V448.282L959 934.996V927.573Z" fill="#FBF9E3"/>
<path d="M959 926.52L1754.89 457.301V464.194L959 935.004V926.52Z" fill="#FBF9E3"/>
<path d="M958 925.452L1754.89 472.145V478.507L958 934.996V925.452Z" fill="#FBF9E3"/>
<path d="M957 924.395L1754.89 485.93V493.353L957 935V924.395Z" fill="#FBF9E3"/>
<path d="M959 926.395L1754.89 501.836V509.259L959 937V926.395Z" fill="#FBF9E3"/>
<path d="M961 927.996L1754.89 517.746V525.169L961 938.601V927.996Z" fill="#FBF9E3"/>
<path d="M958 924.395L1754.89 534.711V542.134L958 935V924.395Z" fill="#FBF9E3"/>
<path d="M958 927.392L1754.89 549.559V556.982L958 937.996V927.392Z" fill="#FBF9E3"/>
<path d="M958 927.395L1754.89 565.344V572.767L958 938V927.395Z" fill="#FBF9E3"/>
<path d="M958 929.395L1754.89 580.188V587.611L958 940V929.395Z" fill="#FBF9E3"/>
<path d="M958 925.395L1754.89 595.094V602.517L958 936V925.395Z" fill="#FBF9E3"/>
<path d="M960 927.399L1754.89 610.004V617.427L960 938.004V927.399Z" fill="#FBF9E3"/>
<path d="M958 926.399L1754.89 624.848V632.271L958 937.004V926.399Z" fill="#FBF9E3"/>
<path d="M959 927.393L1754.89 641.818V649.241L959 937.997V927.393Z" fill="#FBF9E3"/>
<path d="M958 926.393L1754.89 658.787V666.21L958 936.998V926.393Z" fill="#FBF9E3"/>
<path d="M960 925.392L1754.89 674.692V682.115L960 935.997V925.392Z" fill="#FBF9E3"/>
<path d="M958 926.398L1754.89 692.722V700.145L958 937.003V926.398Z" fill="#FBF9E3"/>
<path d="M958 926.393L1754.89 710.747V718.171L958 936.997V926.393Z" fill="#FBF9E3"/>
<path d="M960 924.393L1754.89 727.717V735.14L960 934.998V924.393Z" fill="#FBF9E3"/>
<path d="M959 926.396L1754.89 744.68V752.103L959 937V926.396Z" fill="#FBF9E3"/>
<path d="M959 942.395L1754.89 760.68V768.103L959 953V942.395Z" fill="#FBF9E3"/>
</mask>
<g mask="url(#mask0_7_2618)">
<path d="M1598.17 892.591C1661.42 837.627 1672.5 769.928 1672.5 697V434.736C1672.5 433.835 1672.81 433.091 1673.38 432.391L1711.75 385V705.108C1711.75 705.108 1711.75 848.168 1672.03 915.932C1654.28 975.414 1622.16 1052.97 1622.16 1052.97L1521.59 992.73C1521.59 992.73 1534.93 947.556 1598.17 892.591Z" fill="url(#paint1_linear_7_2618)"/>
</g>
<path d="M1746.42 876.611C1715.36 843.866 1657.88 806.082 1650.82 741.22C1644.33 681.55 1643.21 502.127 1643.08 473.788C1643.07 471.622 1641.31 470 1639.14 470H1559.65L1552.57 484.467V790.968L1506 905.579L1675.41 995L1866 976.108C1866 976.108 1777.48 909.357 1746.42 876.611Z" fill="#2F030A"/>
<path d="M1479.61 864.767C1531.2 820.746 1539.85 746.573 1539.85 707.376V489.004L1559.96 469.504V715.215C1559.96 715.215 1559.96 829.792 1527.56 884.064C1513.09 931.703 1486.89 993.814 1486.89 993.814L1404.85 945.571C1404.85 945.571 1428.02 908.788 1479.61 864.767Z" fill="url(#paint2_linear_7_2618)"/>
<mask id="mask1_7_2618" style="mask-type:alpha" maskUnits="userSpaceOnUse" x="956" y="486" width="604" height="456">
<path d="M956 930.641L1559.88 486.004V493.427L956 937.004V930.641Z" fill="black"/>
<path d="M958 933.641L1559.88 498.73V506.154L958 940.004V933.641Z" fill="black"/>
<path d="M959 933.637L1559.88 511.453V518.876L959 940V933.637Z" fill="black"/>
<path d="M959 934.645L1559.88 524.18V531.603L959 941.008V934.645Z" fill="black"/>
<path d="M957 935L1559.88 536.906V544.329L957 941.363V935Z" fill="black"/>
<path d="M957 934.645L1559.88 549.633V557.056L957 941.008V934.645Z" fill="black"/>
<path d="M960 931.637L1559.88 562.359V569.783L960 938V931.637Z" fill="black"/>
<path d="M958 933.641L1559.88 575.082V582.505L958 940.004V933.641Z" fill="black"/>
<path d="M959 931.004L1559.88 587.809V595.232L959 937.367V931.004Z" fill="black"/>
<path d="M958 934.637L1559.88 600.531V607.954L958 941V934.637Z" fill="black"/>
<path d="M959 935.008L1559.88 613.258V620.681L959 941.371V935.008Z" fill="black"/>
<path d="M958 934.637L1559.88 625.984V633.408L958 941V934.637Z" fill="black"/>
<path d="M959 934.643L1559.88 638.709V646.132L959 941.006V934.643Z" fill="black"/>
<path d="M961 933.642L1559.88 651.434V658.858L961 940.005V933.642Z" fill="black"/>
<path d="M959 932.641L1559.88 664.16V671.583L959 939.004V932.641Z" fill="black"/>
<path d="M959 933L1559.88 676.883V684.306L959 939.363V933Z" fill="black"/>
<path d="M959 932.639L1559.88 689.611V697.034L959 939.001V932.639Z" fill="black"/>
<path d="M960 934L1559.88 702.336V709.76L960 940.363V934Z" fill="black"/>
<path d="M959 932.644L1559.88 715.062V722.485L959 939.007V932.644Z" fill="black"/>
<path d="M963 934.643L1559.88 727.787V735.21L963 941.006V934.643Z" fill="black"/>
<path d="M960 935.007L1559.88 740.515V747.938L960 941.37V935.007Z" fill="black"/>
<path d="M961 934.641L1559.88 753.238V760.661L961 941.004V934.641Z" fill="black"/>
<path d="M959 930.64L1559.88 765.964V773.387L959 937.003V930.64Z" fill="black"/>
<path d="M960 932.638L1559.88 778.688V786.111L960 939.001V932.638Z" fill="black"/>
<path d="M957 933.645L1559.88 791.414V798.837L957 940.007V933.645Z" fill="black"/>
<path d="M961 933.638L1559.88 804.141V811.564L961 940.001V933.638Z" fill="black"/>
</mask>
<g mask="url(#mask1_7_2618)">
<path d="M1475 873.004C1534.46 822.504 1539.9 744.101 1539.9 705.116V489.504L1560 470.004V705.913C1560 705.913 1560 834.025 1527.62 888.004C1513.16 935.385 1486.98 983.004 1486.98 983.004L1405 935.023C1405 935.023 1423.45 916.787 1475 873.004Z" fill="url(#paint3_linear_7_2618)"/>
</g>
<path d="M1512 852L1452.64 871.398L1439.42 895.106L1401.92 923.663L1417.04 1031.43L1554.34 992.633L1550.71 835.297L1512 852Z" fill="#2F030A"/>
<path d="M886 1206L1412 920L1602 894L1640 950H2062V1206H886Z" fill="#2F030A"/>
<path d="M284.844 401.792L249.16 369.957V900.054L388.05 953.295C388.05 953.295 325.55 837.553 304.716 747.275C284.862 661.242 286.031 426.53 286.185 404.642C286.193 403.489 285.704 402.56 284.844 401.792Z" fill="url(#paint4_linear_7_2618)"/>
<mask id="mask2_7_2618" style="mask-type:alpha" maskUnits="userSpaceOnUse" x="248" y="417" width="714" height="559">
<path d="M960.001 963.605L249.198 417V426.594L960.001 972V963.605Z" fill="url(#paint5_linear_7_2618)"/>
<path d="M957.001 962.602L249.198 434.989V444.583L957.001 970.997V962.602Z" fill="url(#paint6_linear_7_2618)"/>
<path d="M958.001 963.608L249.198 451.776V461.369L958.001 972.002V963.608Z" fill="url(#paint7_linear_7_2618)"/>
<path d="M958.001 961.605L249.198 468.562V478.156L958.001 970V961.605Z" fill="url(#paint8_linear_7_2618)"/>
<path d="M956.001 961.602L249.198 486.551V496.145L956.001 969.997V961.602Z" fill="url(#paint9_linear_7_2618)"/>
<path d="M959.001 964.606L249.198 503.344V512.938L959.001 973V964.606Z" fill="url(#paint10_linear_7_2618)"/>
<path d="M956.001 963.605L249.198 520.125V529.718L956.001 972V963.605Z" fill="url(#paint11_linear_7_2618)"/>
<path d="M956.001 964.608L249.198 538.12V547.714L956.001 973.003V964.608Z" fill="url(#paint12_linear_7_2618)"/>
<path d="M959.001 963.603L249.198 556.115V565.709L959.001 971.998V963.603Z" fill="url(#paint13_linear_7_2618)"/>
<path d="M957 960.609L248 572.902V582.495L957 969.003V960.609Z" fill="url(#paint14_linear_7_2618)"/>
<path d="M957 964.604L248 589.694V599.288L957 972.999V964.604Z" fill="url(#paint15_linear_7_2618)"/>
<path d="M959 963.602L248 606.481V616.075L959 971.996V963.602Z" fill="url(#paint16_linear_7_2618)"/>
<path d="M957 966.607L248 623.267V632.861L957 975.002V966.607Z" fill="url(#paint17_linear_7_2618)"/>
<path d="M958 963.604L248 641.257V650.85L958 971.999V963.604Z" fill="url(#paint18_linear_7_2618)"/>
<path d="M959 964.602L248 658.043V667.637L959 972.996V964.602Z" fill="url(#paint19_linear_7_2618)"/>
<path d="M959 963.607L248 674.83V684.423L959 972.002V963.607Z" fill="url(#paint20_linear_7_2618)"/>
<path d="M959 965.602L248 692.817V702.41L959 973.996V965.602Z" fill="url(#paint21_linear_7_2618)"/>
<path d="M956 962.602L248 709.606V719.2L956 970.996V962.602Z" fill="url(#paint22_linear_7_2618)"/>
<path d="M959 960.606L248 726.392V735.985L959 969.001V960.606Z" fill="url(#paint23_linear_7_2618)"/>
<path d="M959 965.605L248 743.187V752.781L959 974V965.605Z" fill="url(#paint24_linear_7_2618)"/>
<path d="M962 966.606L248 761.172V770.766L962 975V966.606Z" fill="url(#paint25_linear_7_2618)"/>
<path d="M958 961.605L248 779.164V788.758L958 970V961.605Z" fill="url(#paint26_linear_7_2618)"/>
<path d="M956 962.605L248 798.352V807.945L956 971V962.605Z" fill="url(#paint27_linear_7_2618)"/>
<path d="M958 961.605L248 817.539V827.133L958 970V961.605Z" fill="url(#paint28_linear_7_2618)"/>
<path d="M962 965.602L248 837.926V847.52L962 973.996V965.602Z" fill="url(#paint29_linear_7_2618)"/>
</mask>
<g mask="url(#mask2_7_2618)">
<path d="M286 433.502L249 402.002V966.245L437 1021.41C437 1021.41 336 889.502 306 748.002C285 668.002 286 433.502 286 433.502Z" fill="url(#paint30_linear_7_2618)"/>
</g>
<path d="M249.162 369.957H164.852C162.652 369.957 160.865 371.602 160.85 373.802C160.617 406.779 158.668 642.344 150 709C140.673 780.727 99.082 862.792 99.082 862.792L284.139 912.539C284.139 912.539 249.162 795.693 249.162 727.436V369.957Z" fill="#2F030A"/>
<path d="M606 1152L366 916L122 850L99.5 862.5L14 1152H606Z" fill="#2F030A"/>
</g>
<defs>
<linearGradient id="paint0_linear_7_2618" x1="1674.52" y1="426.803" x2="1674.52" y2="877.81" gradientUnits="userSpaceOnUse">
<stop offset="0.0514345" stop-color="#FCFAE4"/>
<stop offset="0.344112" stop-color="#FFDEBA"/>
<stop offset="0.504071" stop-color="#D95F41"/>
<stop offset="0.620808" stop-color="#A02E21"/>
<stop offset="0.759898" stop-color="#390E15"/>
</linearGradient>
<linearGradient id="paint1_linear_7_2618" x1="1616.67" y1="418.992" x2="1616.67" y2="750.327" gradientUnits="userSpaceOnUse">
<stop offset="0.307869" stop-color="#FBF9E3"/>
<stop offset="0.715312" stop-color="#B2362F"/>
<stop offset="1" stop-color="#38160D"/>
</linearGradient>
<linearGradient id="paint2_linear_7_2618" x1="1482.41" y1="486.066" x2="1482.41" y2="993.813" gradientUnits="userSpaceOnUse">
<stop offset="0.116077" stop-color="#FDF1D6"/>
<stop offset="0.289391" stop-color="#FFDEBA"/>
<stop offset="0.44498" stop-color="#D95F41"/>
<stop offset="0.54291" stop-color="#A02E21"/>
<stop offset="0.691652" stop-color="#390E15"/>
</linearGradient>
<linearGradient id="paint3_linear_7_2618" x1="1482.5" y1="478.004" x2="1482.5" y2="983.004" gradientUnits="userSpaceOnUse">
<stop offset="0.0435644" stop-color="#FDF1D6"/>
<stop offset="0.174258" stop-color="#FFDEBA"/>
<stop offset="0.372277" stop-color="#D95F41"/>
<stop offset="0.502971" stop-color="#A02E21"/>
<stop offset="0.691652" stop-color="#390E15"/>
</linearGradient>
<linearGradient id="paint4_linear_7_2618" x1="318.605" y1="390.547" x2="318.605" y2="953.294" gradientUnits="userSpaceOnUse">
<stop offset="0.0878848" stop-color="#FCFAE4"/>
<stop offset="0.285132" stop-color="#FFDEBA"/>
<stop offset="0.477047" stop-color="#D95F41"/>
<stop offset="0.623447" stop-color="#A02E21"/>
<stop offset="0.782252" stop-color="#38160D"/>
</linearGradient>
<linearGradient id="paint5_linear_7_2618" x1="709.099" y1="417" x2="707.178" y2="705.166" gradientUnits="userSpaceOnUse">
<stop offset="0.204936" stop-color="#FBF9E3"/>
<stop offset="0.723272" stop-color="#B2362F"/>
<stop offset="1" stop-color="#38160D"/>
</linearGradient>
<linearGradient id="paint6_linear_7_2618" x1="709.099" y1="434.989" x2="707.44" y2="702.845" gradientUnits="userSpaceOnUse">
<stop offset="0.204936" stop-color="#FBF9E3"/>
<stop offset="0.723272" stop-color="#B2362F"/>
<stop offset="1" stop-color="#38160D"/>
</linearGradient>
<linearGradient id="paint7_linear_7_2618" x1="709.099" y1="451.776" x2="707.682" y2="699.322" gradientUnits="userSpaceOnUse">
<stop offset="0.204936" stop-color="#FBF9E3"/>
<stop offset="0.723272" stop-color="#B2362F"/>
<stop offset="1" stop-color="#38160D"/>
</linearGradient>
<linearGradient id="paint8_linear_7_2618" x1="709.099" y1="468.562" x2="707.918" y2="694.529" gradientUnits="userSpaceOnUse">
<stop offset="0.204936" stop-color="#FBF9E3"/>
<stop offset="0.723272" stop-color="#B2362F"/>
<stop offset="1" stop-color="#38160D"/>
</linearGradient>
<linearGradient id="paint9_linear_7_2618" x1="709.099" y1="486.551" x2="708.133" y2="690.938" gradientUnits="userSpaceOnUse">
<stop offset="0.204936" stop-color="#FBF9E3"/>
<stop offset="0.723272" stop-color="#B2362F"/>
<stop offset="1" stop-color="#38160D"/>
</linearGradient>
<linearGradient id="paint10_linear_7_2618" x1="709.099" y1="503.344" x2="708.315" y2="687.42" gradientUnits="userSpaceOnUse">
<stop offset="0.204936" stop-color="#FBF9E3"/>
<stop offset="0.723272" stop-color="#B2362F"/>
<stop offset="1" stop-color="#38160D"/>
</linearGradient>
<linearGradient id="paint11_linear_7_2618" x1="709.099" y1="520.125" x2="708.479" y2="683.889" gradientUnits="userSpaceOnUse">
<stop offset="0.204936" stop-color="#FBF9E3"/>
<stop offset="0.723272" stop-color="#B2362F"/>
<stop offset="1" stop-color="#38160D"/>
</linearGradient>
<linearGradient id="paint12_linear_7_2618" x1="709.099" y1="538.12" x2="708.623" y2="681.573" gradientUnits="userSpaceOnUse">
<stop offset="0.204936" stop-color="#FBF9E3"/>
<stop offset="0.723272" stop-color="#B2362F"/>
<stop offset="1" stop-color="#38160D"/>
</linearGradient>
<linearGradient id="paint13_linear_7_2618" x1="709.099" y1="556.115" x2="708.748" y2="679.256" gradientUnits="userSpaceOnUse">
<stop offset="0.204936" stop-color="#FBF9E3"/>
<stop offset="0.723272" stop-color="#B2362F"/>
<stop offset="1" stop-color="#38160D"/>
</linearGradient>
<linearGradient id="paint14_linear_7_2618" x1="707.901" y1="572.902" x2="707.657" y2="675.731" gradientUnits="userSpaceOnUse">
<stop offset="0.204936" stop-color="#FBF9E3"/>
<stop offset="0.723272" stop-color="#B2362F"/>
<stop offset="1" stop-color="#38160D"/>
</linearGradient>
<linearGradient id="paint15_linear_7_2618" x1="707.901" y1="589.694" x2="707.656" y2="692.524" gradientUnits="userSpaceOnUse">
<stop offset="0.204936" stop-color="#FBF9E3"/>
<stop offset="0.723272" stop-color="#B2362F"/>
<stop offset="1" stop-color="#38160D"/>
</linearGradient>
<linearGradient id="paint16_linear_7_2618" x1="707.901" y1="606.481" x2="707.702" y2="699.155" gradientUnits="userSpaceOnUse">
<stop offset="0.204936" stop-color="#FBF9E3"/>
<stop offset="0.723272" stop-color="#B2362F"/>
<stop offset="1" stop-color="#38160D"/>
</linearGradient>
<linearGradient id="paint17_linear_7_2618" x1="707.901" y1="623.267" x2="707.771" y2="698.168" gradientUnits="userSpaceOnUse">
<stop offset="0.204936" stop-color="#FBF9E3"/>
<stop offset="0.723272" stop-color="#B2362F"/>
<stop offset="1" stop-color="#38160D"/>
</linearGradient>
<linearGradient id="paint18_linear_7_2618" x1="707.901" y1="641.257" x2="707.832" y2="695.845" gradientUnits="userSpaceOnUse">
<stop offset="0.204936" stop-color="#FBF9E3"/>
<stop offset="0.723272" stop-color="#B2362F"/>
<stop offset="1" stop-color="#38160D"/>
</linearGradient>
<linearGradient id="paint19_linear_7_2618" x1="707.901" y1="658.043" x2="707.872" y2="693.589" gradientUnits="userSpaceOnUse">
<stop offset="0.204936" stop-color="#FBF9E3"/>
<stop offset="0.723272" stop-color="#B2362F"/>
<stop offset="1" stop-color="#38160D"/>
</linearGradient>
<linearGradient id="paint20_linear_7_2618" x1="707.901" y1="674.83" x2="707.894" y2="692.603" gradientUnits="userSpaceOnUse">
<stop offset="0.204936" stop-color="#FBF9E3"/>
<stop offset="0.723272" stop-color="#B2362F"/>
<stop offset="1" stop-color="#38160D"/>
</linearGradient>
<linearGradient id="paint21_linear_7_2618" x1="707.901" y1="683.223" x2="707.891" y2="703.535" gradientUnits="userSpaceOnUse">
<stop offset="0.204936" stop-color="#FBF9E3"/>
<stop offset="0.723272" stop-color="#B2362F"/>
<stop offset="1" stop-color="#38160D"/>
</linearGradient>
<linearGradient id="paint22_linear_7_2618" x1="707.901" y1="683.223" x2="707.868" y2="721.308" gradientUnits="userSpaceOnUse">
<stop offset="0.204936" stop-color="#FBF9E3"/>
<stop offset="0.723272" stop-color="#B2362F"/>
<stop offset="1" stop-color="#38160D"/>
</linearGradient>
<linearGradient id="paint23_linear_7_2618" x1="707.901" y1="682.024" x2="707.826" y2="739.152" gradientUnits="userSpaceOnUse">
<stop offset="0.204936" stop-color="#FBF9E3"/>
<stop offset="0.723272" stop-color="#B2362F"/>
<stop offset="1" stop-color="#38160D"/>
</linearGradient>
<linearGradient id="paint24_linear_7_2618" x1="707.901" y1="684.422" x2="707.78" y2="756.784" gradientUnits="userSpaceOnUse">
<stop offset="0.204936" stop-color="#FBF9E3"/>
<stop offset="0.723272" stop-color="#B2362F"/>
<stop offset="1" stop-color="#38160D"/>
</linearGradient>
<linearGradient id="paint25_linear_7_2618" x1="707.901" y1="683.227" x2="707.702" y2="775.901" gradientUnits="userSpaceOnUse">
<stop offset="0.204936" stop-color="#FBF9E3"/>
<stop offset="0.723272" stop-color="#B2362F"/>
<stop offset="1" stop-color="#38160D"/>
</linearGradient>
<linearGradient id="paint26_linear_7_2618" x1="707.901" y1="684.422" x2="707.619" y2="794.868" gradientUnits="userSpaceOnUse">
<stop offset="0.204936" stop-color="#FBF9E3"/>
<stop offset="0.723272" stop-color="#B2362F"/>
<stop offset="1" stop-color="#38160D"/>
</linearGradient>
<linearGradient id="paint27_linear_7_2618" x1="707.901" y1="684.422" x2="707.505" y2="815.18" gradientUnits="userSpaceOnUse">
<stop offset="0.204936" stop-color="#FBF9E3"/>
<stop offset="0.723272" stop-color="#B2362F"/>
<stop offset="1" stop-color="#38160D"/>
</linearGradient>
<linearGradient id="paint28_linear_7_2618" x1="707.901" y1="684.422" x2="707.373" y2="835.492" gradientUnits="userSpaceOnUse">
<stop offset="0.204936" stop-color="#FBF9E3"/>
<stop offset="0.723272" stop-color="#B2362F"/>
<stop offset="1" stop-color="#38160D"/>
</linearGradient>
<linearGradient id="paint29_linear_7_2618" x1="707.901" y1="684.418" x2="707.211" y2="857.069" gradientUnits="userSpaceOnUse">
<stop offset="0.204936" stop-color="#FBF9E3"/>
<stop offset="0.723272" stop-color="#B2362F"/>
<stop offset="1" stop-color="#38160D"/>
</linearGradient>
<linearGradient id="paint30_linear_7_2618" x1="320.953" y1="417.002" x2="260.975" y2="1051.16" gradientUnits="userSpaceOnUse">
<stop offset="0.204936" stop-color="#FBF9E3"/>
<stop offset="0.561935" stop-color="#B2362F"/>
<stop offset="0.733203" stop-color="#38160D"/>
</linearGradient>
<clipPath id="clip0_7_2618">
<rect width="1920" height="1080" fill="white"/>
</clipPath>
</defs>
</svg>
